<svg width="110" height="110" fill="none" xmlns="http://www.w3.org/2000/svg"><circle cx="55" cy="55" r="52" stroke="#0C2560" stroke-width="6"/><path fill-rule="evenodd" clip-rule="evenodd" d="M54.68 17.135A3 3 0 0 1 56.79 20v15.24l32.308 24.427h2.34a3 3 0 0 1 1.57 5.556L58.29 86.556a3 3 0 0 1-3.14 0l-34.72-21.333A3 3 0 0 1 22 59.667h.93l28.388-41.364a3 3 0 0 1 3.362-1.168zM30.206 59.667H50.79V29.673L30.207 59.667zM56.79 42.76v16.905h22.358L56.791 42.761zm-.072 37.718L32.612 65.667h48.213L56.719 80.479z" fill="#0C2560"/></svg>